<svg width="100%" height="100%" viewBox="0 0 128 128" fill="none" xmlns="http://www.w3.org/2000/svg">
  <rect width="128" height="128" rx="64" fill="#AB9FF2"/>
  <path d="M110.584 64.9142L110.584 64.9139C110.334 61.3841 108.661 58.0237 105.904 55.6C103.147 53.1763 99.5267 51.9545 95.8335 52.2056H95.834L72.5841 52.2056V41.4538C72.5841 40.1189 72.0323 38.833 71.0549 37.8988C70.0776 36.9646 68.7302 36.4386 67.3319 36.4386H34.4394C26.1393 36.4386 19.4166 42.9514 19.4166 50.9863V76.4294C19.4166 84.4644 26.1393 90.9771 34.4394 90.9771H39.4546V81.8753C39.4546 76.3054 44.1323 71.8032 49.9699 71.8032H78.5993V81.8753C78.5993 89.9103 85.322 96.4231 93.6221 96.4231H98.0373V71.1186C98.0373 69.9019 98.5335 68.7329 99.4134 67.8611C100.293 66.9894 101.461 66.4866 102.68 66.4678C103.901 66.449 105.083 66.9225 105.985 67.7721C106.887 68.6216 107.414 69.7771 107.423 70.9937L107.442 70.994L107.442 71.0251V90.9771C107.442 93.644 106.339 96.2024 104.383 98.0682C102.427 99.9341 99.7475 100.997 96.9561 100.997H34.4394C27.8247 100.997 21.9421 98.288 17.7943 94.0018C13.6465 89.7154 11.1841 83.9147 11.1841 77.9883V49.8582C11.1841 43.9319 13.6465 38.1312 17.7943 33.8449C21.9421 29.5587 27.8247 26.8498 34.4394 26.8498H69.5566C72.348 26.8498 75.0275 27.9129 77.016 29.7787C79.0045 31.6446 80.0683 34.203 80.0683 36.8699V44.8031C80.0683 46.1381 80.6201 47.4239 81.5975 48.3581C82.5748 49.2924 83.9222 49.8183 85.3205 49.8183H95.8335C97.2345 49.8183 98.5802 50.3449 99.5535 51.2791C100.527 52.2133 101.071 53.4971 101.071 54.8346V58.1929C101.071 59.5304 101.614 60.8142 102.588 61.7484C103.561 62.6826 104.907 63.2092 106.308 63.2092H108.351H108.352C108.955 63.2092 109.55 63.3485 110.084 63.6151C110.618 63.8817 111.078 64.2676 111.425 64.7421C111.773 65.2167 111.998 65.767 112.082 66.3474C112.166 66.9279 112.107 67.519 111.909 68.0703C111.711 68.6217 111.38 69.1167 110.945 69.5149C110.51 69.9131 109.984 70.2029 109.41 70.3609C108.835 70.5188 108.231 70.5402 107.646 70.4234C107.062 70.3066 106.513 70.0546 106.047 69.6877L106.047 69.6874C105.404 69.1789 104.907 68.5022 104.611 67.7315C104.316 66.9606 104.233 66.1266 104.373 65.3146C104.513 64.5026 104.87 63.7433 105.405 63.1149C105.941 62.4865 106.635 62.0114 107.42 61.7394L107.42 61.7392C108.359 61.4138 109.204 60.8603 109.887 60.1264C110.57 59.3925 111.069 58.5002 111.341 57.5224C111.612 56.5446 111.648 55.5122 111.444 54.518C111.241 53.5238 110.804 52.5952 110.17 51.8116C109.536 51.028 108.723 50.4098 107.797 50.0071C106.872 49.6044 105.861 49.4282 104.853 49.4932C103.845 49.5582 102.869 49.8624 102.011 50.3794C101.154 50.8964 100.44 51.6117 99.9276 52.4612L99.9271 52.4619C98.881 54.2081 97.1602 55.4356 95.1899 55.8709C93.2196 56.3062 91.1529 55.9143 89.4639 54.7811L89.4632 54.7805C88.3391 54.0388 87.4366 53.0003 86.8553 51.7784C86.274 50.5564 86.0376 49.1998 86.1713 47.8568C86.305 46.5138 86.8032 45.2382 87.6083 44.1737C88.4133 43.1091 89.4928 42.2942 90.7207 41.8181L90.7214 41.8178C93.1842 40.8661 95.8642 40.6793 98.4335 41.2808C100.957 41.8739 103.2 43.2091 104.803 45.097L104.804 45.0977C106.406 46.9865 107.289 49.3197 107.306 51.7463L110.584 64.9142Z" fill="white"/>
</svg>